<svg xmlns="http://www.w3.org/2000/svg" width="560" height="112" viewBox="0 0 560 112" role="img" aria-label="pocketmine-go">
  <title>pocketmine-go</title>
  <!-- the Go gopher (after the original design by Renee French, CC BY 4.0) -->
  <g transform="translate(14 2)" stroke="#000" stroke-width="2" stroke-linejoin="round">
    <circle cx="14" cy="20" r="8" fill="#6AD7E5"/>
    <circle cx="14" cy="20" r="3.5" fill="#000" stroke="none"/>
    <circle cx="78" cy="20" r="8" fill="#6AD7E5"/>
    <circle cx="78" cy="20" r="3.5" fill="#000" stroke="none"/>
    <ellipse cx="11" cy="62" rx="7" ry="3.5" fill="#F6D2A2" transform="rotate(-35 11 62)"/>
    <ellipse cx="81" cy="62" rx="7" ry="3.5" fill="#F6D2A2" transform="rotate(35 81 62)"/>
    <ellipse cx="28" cy="102" rx="8" ry="4" fill="#F6D2A2" transform="rotate(-20 28 102)"/>
    <ellipse cx="64" cy="102" rx="8" ry="4" fill="#F6D2A2" transform="rotate(20 64 102)"/>
    <path d="M46 8 C70 8 80 22 80 40 L80 82 C80 100 66 106 46 106 C26 106 12 100 12 82 L12 40 C12 22 22 8 46 8 Z" fill="#6AD7E5"/>
    <circle cx="33" cy="30" r="12" fill="#FFF"/>
    <circle cx="61" cy="28" r="13" fill="#FFF"/>
    <circle cx="28" cy="31" r="4.5" fill="#000" stroke="none"/>
    <circle cx="29.5" cy="29.5" r="1.3" fill="#FFF" stroke="none"/>
    <circle cx="56" cy="29" r="4.5" fill="#000" stroke="none"/>
    <circle cx="57.5" cy="27.5" r="1.3" fill="#FFF" stroke="none"/>
    <rect x="42" y="47" width="4.5" height="7" rx="1" fill="#FFF" stroke-width="1.5"/>
    <rect x="46.5" y="47" width="4.5" height="7" rx="1" fill="#FFF" stroke-width="1.5"/>
    <ellipse cx="46.5" cy="45" rx="9" ry="5.5" fill="#F6D2A2" stroke-width="1.5"/>
    <ellipse cx="46.5" cy="41.5" rx="4.5" ry="3" fill="#000" stroke="none"/>
  </g>
  <text x="124" y="66" font-family="'Segoe UI', 'Helvetica Neue', Arial, sans-serif" font-size="50" font-weight="800" textLength="404" lengthAdjust="spacingAndGlyphs" fill="#F0F3F6">PocketMine<tspan fill="#00ADD8">-go</tspan></text>
  <text x="127" y="95" font-family="'Segoe UI', 'Helvetica Neue', Arial, sans-serif" font-size="16" font-weight="600" textLength="400" lengthAdjust="spacing" fill="#9198A1">MINECRAFT: BEDROCK EDITION SERVER</text>
</svg>
